Coordinates
version=1
nRows=30
nColumns=38
inDegrees=no

Units are S.I. units (second, meters, Newtons, ...)
If the header above contains a line with 'inDegrees', this indicates whether rotational values are in degrees (yes) or radians (no).

endheader
time	pelvis_tilt	pelvis_list	pelvis_rotation	pelvis_tx	pelvis_ty	pelvis_tz	hip_flexion_r	hip_adduction_r	hip_rotation_r	knee_angle_r	ankle_angle_r	subtalar_angle_r	mtp_angle_r	hip_flexion_l	hip_adduction_l	hip_rotation_l	knee_angle_l	ankle_angle_l	subtalar_angle_l	mtp_angle_l	lumbar_extension	lumbar_bending	lumbar_rotation	arm_flex_r	arm_add_r	arm_rot_r	elbow_flex_r	pro_sup_r	wrist_flex_r	wrist_dev_r	arm_flex_l	arm_add_l	arm_rot_l	elbow_flex_l	pro_sup_l	wrist_flex_l	wrist_dev_l
0.61	-0.716028	1.46635	-0.76674	0.735673	1.15269	1.03067	0.226509	0.0439172	-0.160686	0.185599	-0.183743	0	0	-0.426469	-0.182585	-0.35512	0.374987	-0.463622	0	0	-0.554862	0.177397	-0.104437	-0.114899	-0.397321	0.25649	0.833762	0.960809	0	0	0.0638962	-0.508956	0.168664	1.05502	1.35218	0	0
0.62	-0.734475	1.45716	-0.747974	0.733165	1.13813	1.03256	0.223136	0.0540119	-0.172797	0.22497	-0.162672	0	0	-0.412194	-0.199518	-0.344521	0.428483	-0.497516	0	0	-0.564322	0.187593	-0.0959118	-0.11283	-0.393643	0.254726	0.831592	0.953015	0	0	0.0626566	-0.498459	0.171763	1.0389	1.34561	0	0
0.63	-0.739063	1.44877	-0.742049	0.730705	1.12361	1.03426	0.214709	0.062457	-0.187867	0.253269	-0.14801	0	0	-0.392515	-0.219009	-0.342067	0.492875	-0.540948	0	0	-0.573152	0.196434	-0.0880763	-0.113047	-0.388931	0.249304	0.830501	0.949665	0	0	0.0610551	-0.489491	0.176976	1.0245	1.33609	0	0
0.64	-0.728435	1.44138	-0.749948	0.728408	1.10912	1.03572	0.201724	0.0683952	-0.208879	0.273056	-0.132098	0	0	-0.369676	-0.239185	-0.344911	0.561977	-0.590757	0	0	-0.581265	0.203316	-0.0814782	-0.115234	-0.384226	0.243002	0.830703	0.946116	0	0	0.0595223	-0.483623	0.187036	1.01199	1.32205	0	0
0.65	-0.698255	1.43476	-0.778111	0.727574	1.09433	1.03628	0.185307	0.0686064	-0.237648	0.291348	-0.114911	0	0	-0.322045	-0.270872	-0.479344	0.748264	-0.579547	0	0	-0.58926	0.208993	-0.075513	-0.124191	-0.386438	0.23563	0.841662	0.9419	0	0	0.0541196	-0.477378	0.197317	1.00571	1.30793	0	0
0.66	-0.692526	1.43466	-0.779063	0.723999	1.08063	1.03789	0.172043	0.0728213	-0.250807	0.2953	-0.102038	0	0	-0.313595	-0.265681	-0.333035	0.696357	-0.678013	0	0	-0.590481	0.206683	-0.072294	-0.120137	-0.374474	0.23497	0.828777	0.938076	0	0	0.0564832	-0.482183	0.218945	0.991957	1.2919	0	0
0.67	-0.672034	1.43173	-0.798127	0.723348	1.06627	1.03796	0.155423	0.0717411	-0.272616	0.305305	-0.0814578	0	0	-0.266655	-0.291647	-0.453648	0.866097	-0.598329	0	0	-0.592921	0.208437	-0.0629996	-0.132002	-0.382741	0.236241	0.842793	0.913166	0	0	0.0569765	-0.482437	0.247596	0.985422	1.27077	0	0
0.68	-0.667365	1.43391	-0.799988	0.721321	1.05278	1.03884	0.141055	0.0728017	-0.283199	0.3031	-0.0727753	0	0	-0.233655	-0.293776	-0.426317	0.919522	-0.57148	0	0	-0.591414	0.204582	-0.0614986	-0.130525	-0.379379	0.240079	0.838702	0.905273	0	0	0.0521416	-0.483834	0.258785	0.979222	1.26369	0	0
0.69	-0.664987	1.43672	-0.801043	0.719192	1.03947	1.03996	0.12552	0.0749585	-0.291515	0.295372	-0.0660895	0	0	-0.200552	-0.292188	-0.396485	0.968639	-0.523122	0	0	-0.589287	0.199355	-0.05934	-0.128311	-0.376178	0.243929	0.833959	0.898165	0	0	0.0469726	-0.485367	0.269318	0.972903	1.25861	0	0
0.7	-0.660436	1.43942	-0.805203	0.717082	1.02625	1.04145	0.110751	0.0772504	-0.296524	0.290109	-0.059038	0	0	-0.169012	-0.28823	-0.369128	1.01266	-0.463935	0	0	-0.587583	0.193734	-0.0574376	-0.125207	-0.372912	0.246514	0.828551	0.894845	0	0	0.040909	-0.486213	0.277367	0.966176	1.25673	0	0
0.71	-0.64597	1.4415	-0.81978	0.715083	1.01318	1.04338	0.0948817	0.0790563	-0.297942	0.284978	-0.0513092	0	0	-0.139854	-0.281727	-0.344427	1.05113	-0.416239	0	0	-0.587571	0.187798	-0.056975	-0.120749	-0.36945	0.247734	0.822753	0.897444	0	0	0.0331866	-0.486488	0.281554	0.959419	1.2582	0	0
0.72	-0.619142	1.44278	-0.846055	0.713357	1.00034	1.04566	0.0761769	0.0802796	-0.297927	0.27666	-0.0526983	0	0	-0.112567	-0.272097	-0.319132	1.08544	-0.341531	0	0	-0.589471	0.182187	-0.0551965	-0.116714	-0.372457	0.258047	0.821234	0.874789	0	0	0.0285946	-0.485726	0.287704	0.950419	1.26343	0	0
0.73	-0.572863	1.44372	-0.890761	0.711892	0.98761	1.04828	0.0537273	0.0801344	-0.29867	0.265771	-0.0507928	0	0	-0.0874619	-0.25686	-0.29056	1.11285	-0.279861	0	0	-0.592424	0.175892	-0.0574536	-0.112738	-0.371236	0.258646	0.818414	0.873855	0	0	0.0215073	-0.484447	0.288968	0.941453	1.26997	0	0
0.74	-0.534407	1.44598	-0.931858	0.709809	0.97496	1.05083	0.0335858	0.0807179	-0.289503	0.253838	-0.0504503	0	0	-0.0623828	-0.241005	-0.268199	1.13438	-0.220763	0	0	-0.593511	0.166825	-0.0573115	-0.107898	-0.369219	0.259416	0.813806	0.875675	0	0	0.0133318	-0.483352	0.288421	0.932166	1.27734	0	0
0.75	-0.479394	1.44618	-0.988967	0.708172	0.9622	1.05346	0.0103115	0.0793218	-0.283959	0.242096	-0.050492	0	0	-0.0413936	-0.229744	-0.260163	1.15012	-0.175436	0	0	-0.59673	0.158482	-0.0582197	-0.104875	-0.369128	0.258847	0.81273	0.879261	0	0	0.00454065	-0.481968	0.286965	0.923609	1.28157	0	0
0.76	-0.420499	1.44514	-1.04951	0.706828	0.949507	1.05618	-0.0153232	0.0763504	-0.278184	0.232056	-0.0510963	0	0	-0.0223707	-0.219651	-0.256254	1.15904	-0.135203	0	0	-0.600929	0.151053	-0.059856	-0.102486	-0.370184	0.257407	0.813405	0.884548	0	0	-0.00412712	-0.480162	0.284518	0.914769	1.28293	0	0
0.77	-0.364877	1.44494	-1.1071	0.70543	0.936911	1.05863	-0.0396775	0.074348	-0.27363	0.216079	-0.0537926	0	0	-0.00233598	-0.209854	-0.254484	1.1626	-0.108241	0	0	-0.60358	0.143086	-0.061279	-0.101154	-0.371642	0.255681	0.815122	0.890244	0	0	-0.0127556	-0.478664	0.281719	0.906194	1.28098	0	0
0.78	-0.312022	1.44563	-1.16189	0.704088	0.924364	1.06077	-0.0627232	0.0714175	-0.273152	0.200669	-0.0561422	0	0	0.0185128	-0.199858	-0.252377	1.16073	-0.0881604	0	0	-0.604552	0.135098	-0.062761	-0.101111	-0.373275	0.252727	0.817949	0.896662	0	0	-0.0211925	-0.47704	0.278714	0.897266	1.27696	0	0
0.79	-0.263975	1.44733	-1.21277	0.702762	0.911866	1.06263	-0.0838199	0.0686409	-0.273043	0.18418	-0.0558077	0	0	0.0398253	-0.190005	-0.250987	1.15312	-0.0753469	0	0	-0.603711	0.127033	-0.0634316	-0.101678	-0.375119	0.248825	0.821021	0.904133	0	0	-0.0290035	-0.47511	0.276252	0.887324	1.27078	0	0
0.8	-0.221564	1.44925	-1.25908	0.701459	0.899445	1.06423	-0.103279	0.0661394	-0.273729	0.16828	-0.0607317	0	0	0.0608586	-0.18061	-0.250064	1.1406	-0.0650214	0	0	-0.602919	0.118851	-0.0630226	-0.101442	-0.379953	0.250976	0.825491	0.901258	0	0	-0.0375863	-0.472191	0.269201	0.878856	1.26873	0	0
0.81	-0.18194	1.45071	-1.30368	0.700172	0.88705	1.06563	-0.122484	0.0637076	-0.273892	0.153002	-0.0661811	0	0	0.0802228	-0.172025	-0.251538	1.12262	-0.0533096	0	0	-0.602064	0.110698	-0.062003	-0.101193	-0.385333	0.253364	0.830394	0.90011	0	0	-0.0463867	-0.469022	0.261112	0.870846	1.26467	0	0
0.82	-0.144321	1.45177	-1.34593	0.699007	0.874804	1.06671	-0.142174	0.0609058	-0.276298	0.139314	-0.0706941	0	0	0.0987153	-0.163553	-0.252453	1.10041	-0.0426218	0	0	-0.601547	0.102956	-0.0607223	-0.101757	-0.390893	0.254182	0.836726	0.900177	0	0	-0.0547234	-0.467003	0.254125	0.864686	1.26047	0	0
0.83	-0.113596	1.45191	-1.38212	0.697904	0.862715	1.06772	-0.160343	0.0586133	-0.281372	0.128273	-0.0752367	0	0	0.115043	-0.156056	-0.254927	1.07255	-0.0325941	0	0	-0.60215	0.0964623	-0.0581288	-0.102996	-0.397354	0.253148	0.84518	0.901023	0	0	-0.0619977	-0.464002	0.24702	0.858206	1.25381	0	0
0.84	-0.00238203	1.4613	-1.50243	0.696373	0.85035	1.06637	-0.175735	0.0324953	-0.270205	0.112223	-0.0776975	0	0	0.139072	-0.137683	-0.262653	1.04364	-0.020988	0	0	-0.590642	0.0780379	-0.0579407	-0.110677	-0.401618	0.247895	0.857531	0.904171	0	0	-0.0743229	-0.46465	0.239974	0.855629	1.24491	0	0
0.85	0.0171856	1.45957	-1.52963	0.695183	0.838126	1.06696	-0.194285	0.0311429	-0.272391	0.103785	-0.0802034	0	0	0.150377	-0.13556	-0.276577	1.00648	-0.0162426	0	0	-0.59328	0.0720283	-0.0529612	-0.112738	-0.408304	0.244341	0.867605	0.908455	0	0	-0.0812008	-0.462038	0.232978	0.85111	1.23858	0	0
0.86	0.027254	1.45392	-1.55184	0.693807	0.825596	1.06733	-0.212644	0.0223899	-0.276285	0.110615	-0.0795286	0	0	0.153832	-0.150384	-0.332207	0.969918	-0.0229531	0	0	-0.600354	0.0655378	-0.0435059	-0.117711	-0.417344	0.238114	0.883079	0.913058	0	0	-0.0886148	-0.45838	0.224046	0.848985	1.233	0	0
0.87	0.039258	1.44982	-1.57451	0.692498	0.813274	1.06748	-0.233686	0.0199347	-0.278403	0.102557	-0.0731554	0	0	0.158085	-0.156346	-0.374282	0.926826	-0.0352308	0	0	-0.606664	0.0596617	-0.0310528	-0.12799	-0.421303	0.215676	0.899566	0.932383	0	0	-0.0890942	-0.456252	0.225815	0.843322	1.22308	0	0
0.88	0.0456391	1.44676	-1.59204	0.691247	0.800768	1.06731	-0.253633	0.0178497	-0.279916	0.0939602	-0.0815349	0	0	0.161998	-0.162158	-0.420096	0.881646	-0.0452426	0	0	-0.611008	0.0525688	-0.0234697	-0.128203	-0.429901	0.216762	0.908494	0.931467	0	0	-0.0975621	-0.452112	0.212647	0.841007	1.22641	0	0
0.89	0.0473223	1.44442	-1.60262	0.690021	0.7883	1.06686	-0.27597	0.0231455	-0.285256	0.0748308	-0.0878172	0	0	0.167409	-0.162147	-0.452746	0.833104	-0.0562372	0	0	-0.614465	0.0468625	-0.0173805	-0.127784	-0.43727	0.217538	0.915813	0.931852	0	0	-0.104726	-0.448363	0.200436	0.838396	1.22755	0	0
0.9	-0.0213853	1.43318	-1.53939	0.689655	0.776105	1.06829	-0.298972	0.0386714	-0.287024	0.0756354	-0.0937324	0	0	0.161807	-0.16972	-0.482559	0.778374	-0.0743783	0	0	-0.631948	0.0529502	-0.00919231	-0.121841	-0.448803	0.221354	0.92242	0.931849	0	0	-0.10597	-0.439478	0.185391	0.83341	1.23042	0	0
